PathFileType	4	(X/Y/Z)	/Users/mathieubourgeois/Desktop/Analyse/Traitement/Sujet_04/Transformed_Static_Sujet_04_Tpose.trc
DataRate	CameraRate	NumFrames	NumMarkers	Units	OrigDataRate	OrigDataStartFrame	OrigNumFrames
120.000000	120.000000	4	36	mm	120.000000	74	296
Frame#	Time	RFHD			RANE			STRN			LANI			LKNE			T10			RHUM			RWRB			C7			LFWT			LTOE			RTOE			LWRA			LBWT			RBWT			RFWT			LKNI			RKNI			RKNE			LANE			RANI			LHEE			RHEE			LHUM			LRAD			RRAD			RWRA			LWRB			LFHD			LBHD			RBHD			RSHO			LSHO			CLAV			LCAR			RCAR			
		X1	Y1	Z1	X2	Y2	Z2	X3	Y3	Z3	X4	Y4	Z4	X5	Y5	Z5	X6	Y6	Z6	X7	Y7	Z7	X8	Y8	Z8	X9	Y9	Z9	X10	Y10	Z10	X11	Y11	Z11	X12	Y12	Z12	X13	Y13	Z13	X14	Y14	Z14	X15	Y15	Z15	X16	Y16	Z16	X17	Y17	Z17	X18	Y18	Z18	X19	Y19	Z19	X20	Y20	Z20	X21	Y21	Z21	X22	Y22	Z22	X23	Y23	Z23	X24	Y24	Z24	X25	Y25	Z25	X26	Y26	Z26	X27	Y27	Z27	X28	Y28	Z28	X29	Y29	Z29	X30	Y30	Z30	X31	Y31	Z31	X32	Y32	Z32	X33	Y33	Z33	X34	Y34	Z34	X35	Y35	Z35	X36	Y36	Z36	

75	0.6166666666666667	-657.690673828125	1782.00341796875	443.6091918945311	-778.8236694335938	91.33825683593751	190.3468780517577	-591.28857421875	1329.773803710938	448.4269714355468	-553.8471069335938	99.91649627685548	240.4673614501953	-433.6458129882813	542.4619750976562	262.8833923339843	-589.52001953125	1316.294555664062	209.9810180664061	-1054.226684570312	1425.912231445312	305.1621398925779	-1328.421630859375	1512.3525390625	278.7148742675778	-600.0713500976562	1592.0849609375	269.7633056640623	-466.1565246582032	1063.331787109375	398.7892761230468	-484.2956237792969	35.47235107421878	420.8437194824218	-763.4155883789062	36.71231842041018	426.5682067871093	117.1957702636718	1587.218139648438	274.3794555664061	-532.2485961914062	1111.439331054688	203.1746520996093	-662.685546875	1110.495971679688	193.966110229492	-760.6830444335938	1075.432250976562	374.8553466796873	-553.6149291992188	500.5988159179688	263.7902526855468	-666.739013671875	503.6681213378906	286.2221679687499	-779.8580322265625	546.984375	279.1886291503905	-466.2843627929688	85.95243072509767	190.9416198730468	-690.2490844726562	97.49308013916017	228.9905853271484	-526.0748901367188	63.27220153808594	152.7261810302734	-732.1577758789062	72.04652404785158	150.333038330078	-134.6430816650391	1445.580322265625	295.4766845703124	-134.6431884765625	1492.069946289062	238.9222717285155	-1061.071533203125	1476.453125	256.090148925781	-1312.006713867188	1557.654418945312	328.5004882812497	138.9726257324218	1510.67138671875	256.9709472656249	-525.2206420898438	1775.991455078125	429.7356567382811	-556.068603515625	1732.547241210938	273.8518981933592	-691.8491821289062	1735.231567382812	297.4372253417967	-744.4151000976562	1576.286865234375	294.0451965332029	-445.5623779296876	1589.944213867188	307.4076538085936	-589.2573852539062	1497.293212890625	402.0475463867186	230.2320861816406	1585.761840820312	239.5341339111328	-1420.994750976562	1566.344604492188	294.6349487304685	
76	0.625	-657.7025146484375	1781.972534179688	443.5969848632811	-778.8329467773438	91.3431854248047	190.3378295898437	-591.2619018554688	1329.752563476562	448.3636169433593	-553.8526000976562	99.91585540771486	240.4609985351562	-434.2474365234376	541.9253540039062	263.513214111328	-589.508544921875	1316.312133789062	209.9236907958983	-1054.202880859375	1425.911499023438	305.148498535156	-1328.4052734375	1512.330932617188	278.7956542968747	-600.0457763671875	1592.082275390625	269.7270202636717	-466.1541137695313	1063.348999023438	398.7536621093749	-484.2901916503907	35.472770690918	420.8351440429687	-763.4193725585938	36.71902465820315	426.5658874511718	117.2004470825195	1587.256225585938	274.4999694824218	-532.22509765625	1111.441528320312	203.1243133544921	-662.6878662109375	1110.499755859375	193.923370361328	-760.6715698242188	1075.441040039062	374.8237304687498	-553.6171264648438	500.6038208007812	263.7704162597655	-666.7305908203125	503.6775512695312	286.2080078124999	-779.8458862304688	547.001220703125	279.1541442871092	-466.2915649414062	85.97124481201173	190.9519348144531	-690.2471313476562	97.49877166748048	228.9961853027343	-526.0848999023438	63.26802825927735	152.7337188720703	-732.1599731445312	72.03845214843751	150.3271942138671	-134.6091613769532	1445.581787109375	295.5036010742186	-134.6022338867188	1492.053588867188	238.9562072753905	-1061.057006835938	1476.444580078125	256.1086425781248	-1311.968383789062	1557.6142578125	328.5665283203122	139.0019378662109	1510.72314453125	257.1151733398436	-525.2279052734375	1776.000610351562	429.7129821777342	-556.0567016601562	1732.572143554688	273.8395690917967	-691.8406372070312	1735.213989257812	297.4028930664061	-744.4096069335938	1576.274291992188	293.994445800781	-445.5338134765626	1589.938842773438	307.4018554687498	-589.2205200195312	1497.286376953125	402.0006103515623	230.246109008789	1585.848388671875	239.6804962158203	-1420.981201171875	1566.298095703125	294.7496948242185	
77	0.6333333333333333	-657.7024536132812	1781.944458007812	443.5760498046873	-778.82177734375	91.3579559326172	190.3555755615234	-591.2462768554688	1329.740966796875	448.3269042968749	-553.8616943359375	99.91703033447267	240.4679412841796	-434.2468872070313	541.9185791015625	263.4951171874999	-589.4911499023438	1316.322387695312	209.8672027587889	-1054.174926757812	1425.902099609375	305.1452941894529	-1328.364135742188	1512.305908203125	278.8759460449216	-600.0089111328125	1592.082153320312	269.690216064453	-466.1489257812501	1063.3486328125	398.7275390624999	-484.3005065917969	35.48456954956058	420.8403625488281	-763.4254760742188	36.71609497070315	426.5707092285155	117.2180557250976	1587.285766601562	274.6429748535155	-532.2200927734375	1111.437622070312	203.0965576171874	-662.67626953125	1110.505737304688	193.878952026367	-760.6687622070312	1075.44677734375	374.7718505859373	-553.6162109375	500.6068115234375	263.7691345214843	-666.7213134765625	503.6726989746094	286.1932678222655	-779.83544921875	546.9906005859375	279.132354736328	-466.1402282714844	85.62812805175783	191.1204528808593	-690.24755859375	97.49925994873048	229.0032653808593	-526.0835571289062	63.27548217773438	152.7360382080078	-732.1552734375	72.04793548583986	150.3222503662109	-134.5898742675782	1445.583129882812	295.537384033203	-134.571273803711	1492.0810546875	238.9905548095702	-1061.034790039062	1476.468383789062	256.1196289062498	-1311.942260742188	1557.574829101562	328.6549072265622	139.0294799804687	1510.769287109375	257.2310791015624	-525.22607421875	1776	429.7107543945311	-556.0364990234375	1732.588500976562	273.8252563476561	-691.818603515625	1735.199340820312	297.3743896484373	-744.382080078125	1576.276123046875	293.9511413574216	-445.5100708007813	1589.929077148438	307.377227783203	-589.21630859375	1497.28466796875	401.9602661132811	230.2555847167968	1585.913330078125	239.8114318847656	-1420.958251953125	1566.236083984375	294.867736816406	
78	0.6416666666666666	-657.6998901367188	1781.914306640625	443.5548095703123	-778.8203125	91.34178161621095	190.3468475341796	-591.2388916015625	1329.73193359375	448.2680664062499	-553.867919921875	99.91888427734376	240.4766235351562	-434.2520141601563	541.9217529296875	263.4905700683593	-589.4598999023438	1316.3271484375	209.840866088867	-1054.143188476562	1425.884887695312	305.1418457031248	-1328.342041015625	1512.27587890625	278.9477539062497	-599.97802734375	1592.087524414062	269.6522521972655	-466.1375732421876	1063.355712890625	398.6976928710936	-484.2900390625001	35.47984313964847	420.8394470214843	-763.4266357421875	36.72068786621097	426.5570373535155	117.2247467041015	1587.310791015625	274.7645263671874	-532.1981201171875	1111.423950195312	203.0502471923827	-662.6758422851562	1110.503173828125	193.8250274658202	-760.6700439453125	1075.44580078125	374.7401123046873	-553.6001586914062	500.6060180664062	263.7458190917968	-666.7196044921875	503.6658935546875	286.1776123046874	-779.8281860351562	546.9984741210938	279.1131286621092	-466.2795104980469	85.96581268310548	190.9378814697265	-690.2462158203125	97.49256896972658	228.9957885742187	-526.0874633789062	63.28137969970704	152.7156372070312	-732.1549682617188	72.0531692504883	150.3193817138671	-134.5757141113282	1445.590209960938	295.5739440917968	-134.5384368896485	1492.088012695312	239.031524658203	-1061.0078125	1476.464111328125	256.1001281738279	-1311.921630859375	1557.53076171875	328.7157287597653	139.0468444824218	1510.794921875	257.3518676757811	-525.2196655273438	1775.979614257812	429.6996154785155	-556.0067749023438	1732.606567382812	273.803985595703	-691.8065185546875	1735.20556640625	297.3729248046873	-744.3612670898438	1576.264282226562	293.9111022949216	-445.5019836425782	1589.936767578125	307.3621215820311	-589.2064819335938	1497.28955078125	401.9303588867186	230.2661590576172	1585.953491210938	239.9539337158203	-1420.954956054688	1566.173950195312	294.9736022949216	
